HIERARCHY
ROOT hip
{
  OFFSET 0 0 0
  CHANNELS 6 Xposition Yposition Zposition Zrotation Yrotation Xrotation
  JOINT abdomen
  {
    OFFSET 0 20.6881 -0.73152
    CHANNELS 3 Zrotation Xrotation Yrotation
    JOINT chest
    {
      OFFSET 0 11.7043 -0.48768
      CHANNELS 3 Zrotation Xrotation Yrotation
      JOINT neck
      {
        OFFSET 0 22.1894 -2.19456
        CHANNELS 3 Zrotation Xrotation Yrotation
        JOINT head
        {
          OFFSET -0.24384 7.07133 1.2192
          CHANNELS 3 Zrotation Xrotation Yrotation
          JOINT leftEye
          {
            OFFSET 4.14528 8.04674 8.04672
            CHANNELS 3 Zrotation Xrotation Yrotation
            End Site
            {
              OFFSET 1 0 0
            }
          }
          JOINT rightEye
          {
            OFFSET -3.6576 8.04674 8.04672
            CHANNELS 3 Zrotation Xrotation Yrotation
            End Site
            {
              OFFSET 1 0 0
            }
          }
        }
      }
      JOINT rCollar
      {
        OFFSET -2.68224 19.2634 -4.8768
        CHANNELS 3 Zrotation Xrotation Yrotation
        JOINT rShldr
        {
          OFFSET -8.77824 -1.95073 1.46304
          CHANNELS 3 Zrotation Xrotation Yrotation
          JOINT rForeArm
          {
            OFFSET -28.1742 -1.7115 0.48768
            CHANNELS 3 Zrotation Xrotation Yrotation
            JOINT rHand
            {
              OFFSET -22.5879 0.773209 7.07136
              CHANNELS 3 Zrotation Xrotation Yrotation
              JOINT rThumb1
              {
                OFFSET -1.2192 -0.487915 3.41376
                CHANNELS 3 Zrotation Xrotation Yrotation
                JOINT rThumb2
                {
                  OFFSET -3.37035 -0.52449 3.41376
                  CHANNELS 3 Zrotation Xrotation Yrotation
                  End Site
                  {
                    OFFSET -1.78271 -1.18214 1.43049
                  }
                }
              }
              JOINT rIndex1
              {
                OFFSET -7.75947 0.938293 5.60832
                CHANNELS 3 Zrotation Xrotation Yrotation
                JOINT rIndex2
                {
                  OFFSET -2.54057 -0.884171 1.56538
                  CHANNELS 3 Zrotation Xrotation Yrotation
                  End Site
                  {
                    OFFSET -1.62519 -0.234802 1.16502
                  }
                }
              }
              JOINT rMid1
              {
                OFFSET -8.24714 1.18213 3.41376
                CHANNELS 3 Zrotation Xrotation Yrotation
                JOINT rMid2
                {
                  OFFSET -3.10165 -0.590103 1.0647
                  CHANNELS 3 Zrotation Xrotation Yrotation
                  End Site
                  {
                    OFFSET -2.48547 -0.328903 0.83742
                  }
                }
              }
              JOINT rRing1
              {
                OFFSET -8.82822 0.546677 1.51678
                CHANNELS 3 Zrotation Xrotation Yrotation
                JOINT rRing2
                {
                  OFFSET -2.60934 -0.819778 -0.0198488
                  CHANNELS 3 Zrotation Xrotation Yrotation
                  End Site
                  {
                    OFFSET -2.33842 -0.294052 0.168128
                  }
                }
              }
              JOINT rPinky1
              {
                OFFSET -8.27202 -0.0477905 -0.4584
                CHANNELS 3 Zrotation Xrotation Yrotation
                JOINT rPinky2
                {
                  OFFSET -1.82734 -0.647385 -0.700984
                  CHANNELS 3 Zrotation Xrotation Yrotation
                  End Site
                  {
                    OFFSET -1.69225 -0.51767 -0.607171
                  }
                }
              }
            }
          }
        }
      }
      JOINT lCollar
      {
        OFFSET 2.68224 19.2634 -4.8768
        CHANNELS 3 Zrotation Xrotation Yrotation
        JOINT lShldr
        {
          OFFSET 8.77824 -1.95073 1.46304
          CHANNELS 3 Zrotation Xrotation Yrotation
          JOINT lForeArm
          {
            OFFSET 28.1742 -1.7115 0.48768
            CHANNELS 3 Zrotation Xrotation Yrotation
            JOINT lHand
            {
              OFFSET 22.5879 0.773209 7.07136
              CHANNELS 3 Zrotation Xrotation Yrotation
              JOINT lThumb1
              {
                OFFSET 1.2192 -0.487915 3.41376
                CHANNELS 3 Zrotation Xrotation Yrotation
                JOINT lThumb2
                {
                  OFFSET 3.37035 -0.52449 3.41376
                  CHANNELS 3 Zrotation Xrotation Yrotation
                  End Site
                  {
                    OFFSET 1.78271 -1.18214 1.43049
                  }
                }
              }
              JOINT lIndex1
              {
                OFFSET 7.75947 0.938293 5.60832
                CHANNELS 3 Zrotation Xrotation Yrotation
                JOINT lIndex2
                {
                  OFFSET 2.54057 -0.884171 1.56538
                  CHANNELS 3 Zrotation Xrotation Yrotation
                  End Site
                  {
                    OFFSET 1.62519 -0.234802 1.16502
                  }
                }
              }
              JOINT lMid1
              {
                OFFSET 8.24714 1.18213 3.41376
                CHANNELS 3 Zrotation Xrotation Yrotation
                JOINT lMid2
                {
                  OFFSET 3.10165 -0.590103 1.0647
                  CHANNELS 3 Zrotation Xrotation Yrotation
                  End Site
                  {
                    OFFSET 2.48547 -0.328903 0.83742
                  }
                }
              }
              JOINT lRing1
              {
                OFFSET 8.82822 0.546677 1.51678
                CHANNELS 3 Zrotation Xrotation Yrotation
                JOINT lRing2
                {
                  OFFSET 2.60934 -0.819778 -0.0198488
                  CHANNELS 3 Zrotation Xrotation Yrotation
                  End Site
                  {
                    OFFSET 2.33842 -0.294052 0.168128
                  }
                }
              }
              JOINT lPinky1
              {
                OFFSET 8.27202 -0.0477905 -0.4584
                CHANNELS 3 Zrotation Xrotation Yrotation
                JOINT lPinky2
                {
                  OFFSET 1.82734 -0.647385 -0.700984
                  CHANNELS 3 Zrotation Xrotation Yrotation
                  End Site
                  {
                    OFFSET 1.69225 -0.51767 -0.607171
                  }
                }
              }
            }
          }
        }
      }
    }
  }
  JOINT rButtock
  {
    OFFSET -8.77824 4.35084 1.2192
    CHANNELS 3 Zrotation Xrotation Yrotation
    JOINT rThigh
    {
      OFFSET 0 -1.70687 -2.19456
      CHANNELS 3 Zrotation Xrotation Yrotation
      JOINT rShin
      {
        OFFSET 0 -36.8199 0.73152
        CHANNELS 3 Zrotation Xrotation Yrotation
        JOINT rFoot
        {
          OFFSET 0.73152 -45.1104 -5.12064
          CHANNELS 3 Zrotation Xrotation Yrotation
          End Site
          {
            OFFSET -1.1221 -3.69964 12.103
          }
        }
      }
    }
  }
  JOINT lButtock
  {
    OFFSET 8.77824 4.35084 1.2192
    CHANNELS 3 Zrotation Xrotation Yrotation
    JOINT lThigh
    {
      OFFSET 0 -1.70687 -2.19456
      CHANNELS 3 Zrotation Xrotation Yrotation
      JOINT lShin
      {
        OFFSET 0 -36.8199 0.73152
        CHANNELS 3 Zrotation Xrotation Yrotation
        JOINT lFoot
        {
          OFFSET -0.73152 -45.1104 -5.12064
          CHANNELS 3 Zrotation Xrotation Yrotation
          End Site
          {
            OFFSET 1.1221 -3.69964 12.103
          }
        }
      }
    }
  }
}
MOTION
Frames:	7
Frame Time:	0.00833333
46.8357 84.3421 8.19844 0.0 0.0 0.0 -1.09228 -0.00410965 -0.0300718 -0.301197 -0.00346504 -0.0521775 3.46387e-14 -7.95139e-16 -3.72719e-17 1.03716e-13 3.18055e-15 -1.13369e-16 -0.0 0.0 0.0 -0.0 0.0 0.0 1.74922e-14 -9.31803e-18 2.48481e-16 3.6585e-13 -3.35449e-16 1.59028e-15 6.2568e-12 -1.8811e-12 -5.725e-14 7.1662e-11 1.84502e-12 -3.18055e-15 1.69016e-10 -7.81953e-14 -1.17681e-13 2.91874e-10 -1.36764e-13 -2.13097e-13 1.69023e-10 -7.4743e-14 -1.24042e-13 7.73091 5.47488 0.417314 1.69017e-10 -7.73272e-14 -1.17681e-13 2.90554 0.965183 0.102902 1.69027e-10 -7.76254e-14 -1.16885e-13 10.2786 0.731801 0.0259123 1.69015e-10 -8.07066e-14 -1.04958e-13 2.22167 -0.733487 -0.20892 1.71968e-14 -8.92978e-18 -2.48481e-16 3.61912e-13 -7.45443e-16 -1.98785e-16 6.26917e-12 1.86261e-12 -7.95139e-14 7.16364e-11 -1.91201e-12 4.45278e-14 1.68997e-10 -1.02073e-13 -1.11319e-13 2.91858e-10 -1.7175e-13 -1.88448e-13 1.68989e-10 -9.70069e-14 -1.01778e-13 -7.73091 5.47488 -0.417314 1.68996e-10 -1.01082e-13 -1.11319e-13 -2.90554 0.965183 -0.102902 1.68984e-10 -1.00883e-13 -1.11319e-13 -10.2786 0.731801 -0.0259123 1.68993e-10 -1.04163e-13 -1.20861e-13 -2.22167 -0.733487 0.20892 -2.03217e-16 0.0 -3.88251e-19 -0.322086 -1.92007 -0.0117205 -0.00931977 -2.07855 -0.0770036 -0.505947 3.99667 0.139381 2.03217e-16 0.0 3.88251e-19 -1.33963 -5.66991 0.118119 -0.000501099 4.71388 -0.032042 0.520978 0.954213 -0.0788822
41.9176 82.9353 1.70562 -22.0527 -87.8251 29.1437 -1.36674 -1.49904 0.631019 -0.140715 -1.31053 0.120773 1.72348 -0.495686 0.721369 -1.18498 -1.23663 0.807752 -0.0 0.0 0.0 -0.0 0.0 0.0 1.71277e-15 -2.38651e-13 -2.20006e-14 5.66439 -4.32596 -0.0434203 -5.05806 -2.4942 7.67598 -6.80771e-07 0.00496681 0.00069804 -8.11054e-10 -2.6119e-09 -4.99886e-11 -1.40313e-09 -4.51795e-09 -8.34065e-11 -8.11048e-10 -2.6119e-09 -4.99958e-11 7.73091 5.47488 0.417314 -8.11053e-10 -2.6119e-09 -4.99915e-11 2.90554 0.965183 0.102902 -8.11044e-10 -2.6119e-09 -4.99897e-11 10.2786 0.731801 0.0259123 -8.11055e-10 -2.6119e-09 -4.99776e-11 2.22167 -0.733487 -0.20892 1.44692e-15 -2.38651e-13 -2.24887e-14 -3.8301 -3.66195 -0.991419 4.32138 -1.98411 -6.72712 -0.0271184 3.65421 -0.509799 7.9445e-10 -2.59608e-09 1.29034e-10 1.37395e-09 -4.47818e-09 2.13954e-10 7.94441e-10 -2.59607e-09 1.29041e-10 -7.73091 5.47488 -0.417314 7.94447e-10 -2.59607e-09 1.29032e-10 -2.90554 0.965183 -0.102902 7.94439e-10 -2.59608e-09 1.29033e-10 -10.2786 0.731801 -0.0259123 7.94447e-10 -2.59607e-09 1.29023e-10 -2.22167 -0.733487 0.20892 -2.03217e-16 0.0 -3.88251e-19 -3.43849 -5.17018 4.71383 -0.00146217 3.21847 0.0394274 -1.21625 1.49279 -9.86723 2.03217e-16 0.0 3.88251e-19 1.39164 -7.28194 -2.98063 -0.00741111 7.81911 -0.0940965 1.12931 -1.73329 9.64839
41.9184 82.935 1.70478 -22.1454 -87.81 29.2383 -1.61936 -3.07894 1.3313 0.0375752 -2.69225 0.303894 3.55865 -1.01958 1.48405 -2.39783 -2.54214 1.66289 -0.0 0.0 0.0 -0.0 0.0 0.0 -1.57883e-14 -5.01804e-13 -4.477e-14 11.6455 -8.89929 -0.0890802 -9.68482 -4.98134 15.8361 -2.03646e-06 0.0124031 0.00174314 -1.87324e-09 -5.44172e-09 -1.02314e-10 -3.24015e-09 -9.41281e-09 -1.7056e-10 -1.87324e-09 -5.44172e-09 -1.02322e-10 7.73091 5.47488 0.417314 -1.87324e-09 -5.44172e-09 -1.0232e-10 2.90554 0.965183 0.102902 -1.87323e-09 -5.44172e-09 -1.02317e-10 10.2786 0.731801 0.0259123 -1.87324e-09 -5.44172e-09 -1.02305e-10 2.22167 -0.733487 -0.20892 -1.60245e-14 -5.01803e-13 -4.52515e-14 -8.01815 -7.52807 -2.05345 8.38735 -3.99077 -13.8651 0.015474 7.51571 -1.05559 1.47362e-09 -5.40312e-09 2.68648e-10 2.54897e-09 -9.32014e-09 4.45417e-10 1.47361e-09 -5.4031e-09 2.68652e-10 -7.73091 5.47488 -0.417314 1.47361e-09 -5.4031e-09 2.68644e-10 -2.90554 0.965183 -0.102902 1.47361e-09 -5.40312e-09 2.68646e-10 -10.2786 0.731801 -0.0259123 1.47362e-09 -5.4031e-09 2.68637e-10 -2.22167 -0.733487 0.20892 -2.03217e-16 0.0 -3.88251e-19 -6.14698 -8.51894 9.77827 -0.0167564 8.81832 0.164243 -2.89731 -1.03562 -20.4408 2.03217e-16 0.0 3.88251e-19 4.08746 -8.95259 -6.28322 -0.00727664 11.1015 -0.160946 2.74731 -4.34928 19.9827
41.9215 82.9339 1.70989 -21.5486 -87.8029 28.6519 -1.81191 -4.48655 1.95856 0.203965 -3.92453 0.467675 5.20789 -1.48612 2.16475 -3.4502 -3.70694 2.42777 -0.0 0.0 0.0 -0.0 0.0 0.0 -2.98462e-14 -7.15935e-13 -6.64989e-14 16.9731 -12.9779 -0.133295 -13.217 -6.94656 23.186 -2.40552e-06 0.0149004 0.00209412 -2.77119e-09 -7.83554e-09 -1.4973e-10 -4.79315e-09 -1.35536e-08 -2.49793e-10 -2.77119e-09 -7.83554e-09 -1.49739e-10 7.73091 5.47488 0.417314 -2.77119e-09 -7.83554e-09 -1.49739e-10 2.90554 0.965183 0.102902 -2.77119e-09 -7.83554e-09 -1.49735e-10 10.2786 0.731801 0.0259123 -2.77119e-09 -7.83554e-09 -1.49723e-10 2.22167 -0.733487 -0.20892 -3.00529e-14 -7.15935e-13 -6.69691e-14 -11.8763 -10.9726 -3.02351 11.5929 -5.62479 -20.2711 0.116788 10.9591 -1.55465 2.04536e-09 -7.78804e-09 3.87323e-10 3.53815e-09 -1.34342e-08 6.4224e-10 2.04534e-09 -7.78802e-09 3.87325e-10 -7.73091 5.47488 -0.417314 2.04535e-09 -7.78802e-09 3.87318e-10 -2.90554 0.965183 -0.102902 2.04535e-09 -7.78804e-09 3.87321e-10 -10.2786 0.731801 -0.0259123 2.04536e-09 -7.78801e-09 3.87312e-10 -2.22167 -0.733487 0.20892 -2.03217e-16 0.0 -3.88251e-19 -8.05393 -11.3644 14.3954 -0.0515647 13.8124 0.280101 -5.15382 -2.98934 -29.9145 2.03217e-16 0.0 3.88251e-19 6.32626 -10.401 -9.25821 -0.000446381 14.0295 -0.222433 4.9709 -6.27291 29.2817
41.9192 82.9347 1.70539 -22.0589 -87.7931 29.1531 -1.92756 -5.46569 2.39816 0.323847 -4.78331 0.582131 6.36585 -1.81018 2.63992 -4.17523 -4.52273 2.96273 -0.0 0.0 0.0 -0.0 0.0 0.0 -3.52961e-14 -8.07513e-13 -8.56265e-14 20.6805 -15.8195 -0.171183 -15.3729 -8.11739 28.3596 -3.26901e-08 0.00505036 0.000709783 -3.25856e-09 -9.13934e-09 -1.84873e-10 -5.6361e-09 -1.58092e-08 -3.09225e-10 -3.25856e-09 -9.13934e-09 -1.84882e-10 7.73091 5.47488 0.417314 -3.25856e-09 -9.13933e-09 -1.84882e-10 2.90554 0.965183 0.102902 -3.25855e-09 -9.13934e-09 -1.84878e-10 10.2786 0.731801 0.0259123 -3.25856e-09 -9.13933e-09 -1.84867e-10 2.22167 -0.733487 -0.20892 -3.54735e-14 -8.07513e-13 -8.60738e-14 -14.6352 -13.3756 -3.71683 13.6042 -6.63951 -24.7611 0.224064 13.3606 -1.91286 2.34852e-09 -9.11768e-09 4.53652e-10 4.06276e-09 -1.57286e-08 7.52464e-10 2.34851e-09 -9.11766e-09 4.53652e-10 -7.73091 5.47488 -0.417314 2.34851e-09 -9.11766e-09 4.53646e-10 -2.90554 0.965183 -0.102902 2.34851e-09 -9.11768e-09 4.53649e-10 -10.2786 0.731801 -0.0259123 2.34852e-09 -9.11765e-09 4.53639e-10 -2.22167 -0.733487 0.20892 -2.03217e-16 0.0 -3.88251e-19 -9.10046 -13.2338 17.6877 -0.0882989 17.2921 0.365116 -7.11253 -4.09713 -36.5579 2.03217e-16 0.0 3.88251e-19 7.79491 -11.3821 -11.3508 0.00831557 16.0717 -0.266975 6.8989 -7.28482 35.8091
41.9215 82.9339 1.70767 -21.7884 -87.7783 28.8902 -1.96761 -5.84651 2.57213 0.370765 -5.11958 0.62685 6.82491 -1.93539 2.82714 -4.47661 -4.85148 3.17315 -0.0 0.0 0.0 -0.0 0.0 0.0 -2.75727e-14 -6.94912e-13 -1.00556e-13 22.1258 -16.9296 -0.199403 -16.1574 -8.52562 30.4045 3.70006e-06 -0.0250708 -0.00352347 -3.21014e-09 -9.03773e-09 -1.81311e-10 -5.55256e-09 -1.56342e-08 -3.03653e-10 -3.21014e-09 -9.03773e-09 -1.81321e-10 7.73091 5.47488 0.417314 -3.21014e-09 -9.03772e-09 -1.81318e-10 2.90554 0.965183 0.102902 -3.21014e-09 -9.03773e-09 -1.81316e-10 10.2786 0.731801 0.0259123 -3.21014e-09 -9.03772e-09 -1.81305e-10 2.22167 -0.733487 -0.20892 -2.77188e-14 -6.94912e-13 -1.00958e-13 -15.7286 -14.3304 -3.99004 14.3418 -7.00147 -26.5189 0.274721 14.3056 -2.05665 2.32035e-09 -9.22961e-09 4.97186e-10 4.01476e-09 -1.59263e-08 8.28163e-10 2.32034e-09 -9.2296e-09 4.97185e-10 -7.73091 5.47488 -0.417314 2.32035e-09 -9.2296e-09 4.9718e-10 -2.90554 0.965183 -0.102902 2.32035e-09 -9.22962e-09 4.97182e-10 -10.2786 0.731801 -0.0259123 2.32036e-09 -9.22959e-09 4.97171e-10 -2.22167 -0.733487 0.20892 -2.03217e-16 0.0 -3.88251e-19 -9.44596 -13.9276 19.0007 -0.105476 18.6518 0.399992 -7.9789 -4.48317 -39.1794 2.03217e-16 0.0 3.88251e-19 8.34963 -11.762 -12.1749 0.0129174 16.874 -0.285713 7.71894 -7.58523 38.367
41.9133 82.9338 1.70833 -21.7081 -87.7647 28.8109 -1.96133 -5.80042 2.55531 0.363845 -5.08264 0.621552 6.782 -1.91874 2.80856 -4.48301 -4.83293 3.15085 -0.0 0.0 0.0 -0.0 0.0 0.0 -1.04931e-14 -4.3802e-13 -1.12512e-13 21.9573 -16.8028 -0.21991 -16.0808 -8.48883 30.1955 9.49281e-07 -0.0695292 -0.00977169 -2.77716e-09 -7.92651e-09 -1.51127e-10 -4.80403e-09 -1.37133e-08 -2.53423e-10 -2.77715e-09 -7.92651e-09 -1.51139e-10 7.73091 5.47488 0.417314 -2.77716e-09 -7.9265e-09 -1.5113e-10 2.90554 0.965183 0.102902 -2.77715e-09 -7.92651e-09 -1.51131e-10 10.2786 0.731801 0.0259123 -2.77716e-09 -7.9265e-09 -1.51121e-10 2.22167 -0.733487 -0.20892 -1.06067e-14 -4.38022e-13 -1.12854e-13 -15.602 -14.2533 -3.95316 14.256 -6.95823 -26.3129 0.269252 14.211 -2.04214 2.0534e-09 -8.4594e-09 5.22034e-10 3.55404e-09 -1.46048e-08 8.75073e-10 2.05339e-09 -8.45939e-09 5.22033e-10 -7.73091 5.47488 -0.417314 2.0534e-09 -8.45939e-09 5.22028e-10 -2.90554 0.965183 -0.102902 2.05339e-09 -8.4594e-09 5.22028e-10 -10.2786 0.731801 -0.0259123 2.05341e-09 -8.45938e-09 5.22015e-10 -2.22167 -0.733487 0.20892 -2.03217e-16 0.0 -3.88251e-19 -9.40637 -13.8367 18.8663 -0.103163 18.4972 0.396824 -7.92555 -4.49052 -38.9141 2.03217e-16 0.0 3.88251e-19 8.28952 -11.727 -12.0841 0.0128659 16.7907 -0.285395 7.61077 -7.53634 38.0732
